# xmcd
#
# Track frame offsets:
#	150
#	15229
#	33396
#	46595
#	64081
#	80412
#	97308
#	112983
#	124595
#	132401
#	143055
#	159984
#	180283
#	197225
#	208977
#	225581
#
# Disc length: 3240 seconds
#
# Revision: 0
# Processed by: cddbd v1.5.2PL0 Copyright (c) Steve Scherf et al.
# Submitted via: EasyCDDAExtractor 16.0.6.1
#
DISCID=cf0ca610
DTITLE=Διάφοροι  - Τα λαϊκά του χθες και του σήμερα Cd3
DYEAR=1900
DGENRE=
TTITLE0=Κρίση (Νίκος Μακρόπουλος)
TTITLE1=Θεέ μου (Δημήτρης Μπάσης)
TTITLE2=Εξαρτημένος (Στ.Γονίδης)
TTITLE3=Δεν έχω πια δικαίωμα (Πίτσα Παπαδοπούλου)
TTITLE4=Μα που να πάω (Θέμης Αδαμαντίδης)
TTITLE5=Το καλύτερο μπεγλέρι (Γιώργος μαργαρίτης)'
TTITLE6=Οι άντρες δεν παρακαλάνε (Αλέκος Ζαζόπουλος)
TTITLE7=Η πρώτη αγάπη σου είμαι εγώ (Γιώργος Μελάς)
TTITLE8=Ψιλή βροχούλα έπιασε (Γιάννης Μπογδάνος)
TTITLE9=Το δικό σου το μαράζι (Φραντζέσκα Καβαδία)
TTITLE10=Photo  finnish (Μιχάλης Δημητριάδης)
TTITLE11=Λάθος άνθρωπο πλήγωσες (Κώστας Μακεδόνας)
TTITLE12=Κάνω ένα τσιγάρο και φεύγω (Βασίλης Καρράς)
TTITLE13=Στη φωτιά θα πέσω (Ηλίας Μακρής)
TTITLE14=Άγνωστος (Τόλης Βοσκόπουλος)
TTITLE15=Ο παλιατζής (Άγγελος and Στέλιος Διονυσίου)
EXTD=
EXTT0=
EXTT1=
EXTT2=
EXTT3=
EXTT4=
EXTT5=
EXTT6=
EXTT7=
EXTT8=
EXTT9=
EXTT10=
EXTT11=
EXTT12=
EXTT13=
EXTT14=
EXTT15=
PLAYORDER=
